<svg width="681" height="82" viewBox="0 0 681 82" fill="none" xmlns="http://www.w3.org/2000/svg">
<g style=" filter:saturate(0);">
<path d="M318.587 45.693C318.738 44.158 318.964 42.623 319.292 41.0376V40.9873C319.241 40.9873 319.191 40.9873 319.166 41.0125C316.851 41.239 313.202 41.5158 310.484 41.8681C305.753 42.4972 301.45 43.1263 301.098 43.5541C300.117 44.7117 306.609 45.5672 316.473 45.6931H318.587L318.587 45.693Z" fill="url(#paint0_linear_174_26)"/>
<path d="M368.286 0.598996C352.709 0.598996 337.334 9.4064 327.847 22.316C327.847 22.316 305.753 23.9013 304.595 25.8641C301.122 32.5326 301.022 43.7301 301.022 43.7301V43.7049C301.047 43.6546 301.072 43.6042 301.097 43.5539C301.449 43.1261 305.753 42.497 310.483 41.8679C313.176 41.5156 316.85 41.2388 319.165 41.0123C319.215 41.0123 319.24 41.0123 319.291 40.9871C326.966 40.2322 341.612 39.1753 349.966 38.9488C370.475 38.3952 388.165 38.5462 400.445 39.0998C404.018 17.6598 389.977 0.598816 368.285 0.598816L368.286 0.598996Z" fill="url(#paint1_linear_174_26)"/>
<path d="M400.47 39.1C388.215 38.5464 370.525 38.3702 349.991 38.949C341.611 39.1755 326.966 40.2324 319.291 40.9873C319.14 41.8429 318.863 43.2521 318.637 45.0891V45.1898C318.561 45.8189 318.511 46.448 318.461 47.0771V47.2029C318.435 47.8068 318.41 48.4108 318.41 49.0147C318.41 49.3921 318.41 49.7696 318.435 50.1471C318.435 50.4742 318.435 50.7762 318.461 51.0782C318.486 51.7324 318.536 52.4119 318.586 53.0662C318.612 53.2423 318.637 53.4436 318.662 53.6198C318.712 54.1231 318.788 54.6264 318.863 55.1296C318.888 55.3309 318.939 55.5322 318.964 55.7335C319.039 56.2116 319.14 56.6897 319.241 57.1679C319.291 57.3692 319.316 57.5454 319.366 57.7215C319.492 58.1996 319.618 58.7029 319.744 59.181C319.769 59.2565 319.794 59.332 319.819 59.4327C327.545 58.6777 337.031 57.948 348.229 57.4951C348.355 57.4951 353.136 57.3189 353.187 57.3189C363.555 56.9918 386.907 57.1679 393.223 57.2434C394.229 57.2434 394.858 57.2686 394.858 57.2686C400.168 57.3441 402.332 57.3944 407.843 57.6964C410.385 57.8222 414.613 57.9984 414.839 58.552V58.5772C414.839 58.6024 414.839 58.6024 414.814 58.6275C418.312 52.1603 418.362 41.4655 418.362 41.4655C418.563 40.5344 411.895 39.6285 400.47 39.1001" fill="url(#paint2_linear_174_26)"/>
<path d="M394.53 21.234H399.16C394.857 8.904 383.432 0.573997 368.309 0.573997C352.732 0.573997 337.357 9.4066 327.87 22.291C334.69 21.6619 343.598 21.1334 352.329 20.9825C354.04 20.9573 357.312 20.2527 359.149 17.535C362.571 12.4518 365.943 7.318 370.724 5.607C370.799 5.5818 370.9 5.5315 370.975 5.50635C378.273 2.76345 387.885 9.53255 394.529 21.2343L394.53 21.234Z" fill="url(#paint3_linear_174_26)"/>
<path d="M393.22 57.269C386.904 57.2187 363.577 57.0174 353.184 57.3445C353.134 57.3445 348.378 57.5206 348.227 57.5206C337.029 57.9736 327.542 58.6781 319.817 59.4582C323.742 72.4932 335.444 81.4262 351.096 81.4262C367.629 81.4262 383.96 71.4864 393.221 57.2682L393.22 57.269Z" fill="#E4002B"/>
<path d="M393.22 57.269C383.934 71.487 367.628 81.427 351.095 81.427C343.646 81.427 337.104 79.4139 331.844 75.8909C326.056 72.0156 321.854 66.3034 319.79 59.4589C327.515 58.704 337.002 57.9742 348.2 57.5213C348.351 57.5213 353.132 57.3451 353.157 57.3451C363.575 57.018 386.927 57.1942 393.218 57.2696L393.22 57.269Z" fill="url(#paint4_linear_174_26)" style="mix-blend-mode:luminosity"/>
<path d="M393.22 57.269C391.66 57.2438 389.043 57.2438 385.822 57.2187C378.373 57.1684 367.528 57.1432 359.802 57.2187C358.091 58.6027 356.153 60.6662 355.247 62.5283C349.233 72.6943 347.144 82.6593 328.548 67.4605C328.548 67.4605 325.579 67.1837 323.566 67.5612C325.604 70.6815 328.221 73.3489 331.291 75.513C331.517 75.6639 331.719 75.7898 331.87 75.8904C332.222 76.1169 332.549 76.3434 332.901 76.5698C337.959 79.665 344.124 81.4265 351.095 81.4265C367.628 81.4265 383.959 71.4867 393.22 57.2685L393.22 57.269Z" fill="url(#paint5_linear_174_26)"/>
<path d="M414.86 58.552C414.634 57.9984 410.406 57.8474 407.864 57.6964C402.328 57.3945 400.164 57.3441 394.879 57.2686C394.879 57.2686 394.25 57.2686 393.244 57.2434H393.218H393.244C392.313 58.6526 391.331 60.0114 390.274 61.3452C404.869 60.9174 414.457 59.8857 414.859 58.552L414.86 58.552Z" fill="url(#paint6_linear_174_26)"/>
</g>
<path d="M605 49.417C603.113 39.226 612.474 27.927 624.251 24.681C637.965 21.913 649.516 27.1974 651.604 37.716C653.063 48.008 645.137 58.778 631.85 61.874C619.293 64.2143 607.189 59.7099 605 49.418V49.417ZM622.665 37.036C618.06 42.2701 616.877 49.115 620.023 52.285C623.168 55.4557 629.434 53.7948 634.014 48.5607C638.593 43.3266 639.801 36.4817 636.656 33.3117C633.536 30.141 627.27 31.8019 622.665 37.036ZM558.849 35.048C558.773 33.664 558.094 32.6322 556.861 31.978C555.628 31.3237 553.816 30.9714 551.476 30.9714H549.085L546.82 41.6154H548.733C552.055 41.6154 554.596 41.0618 556.383 39.9294C558.144 38.7719 558.975 37.1614 558.849 35.0476V35.048ZM532.704 60.967C532.704 60.967 529.131 61.118 529.609 57.7208L535.849 28.4798C536.202 26.7938 537.863 25.4349 539.549 25.4349H554.622C557.39 25.4349 559.805 25.611 561.869 25.9382C563.957 26.2401 565.769 26.7686 567.304 27.5235C568.839 28.2784 570.022 29.2598 570.877 30.4929C571.733 31.7008 572.211 33.5126 572.337 35.3244C572.589 39.4261 570.726 42.7478 566.725 45.239C562.724 47.7554 556.987 48.7116 549.488 48.7116H545.336L542.694 60.9666L532.704 60.967ZM474.424 34.922C474.323 33.4876 473.719 32.4811 472.587 31.9023C471.455 31.2984 469.844 30.9964 467.705 30.9964H464.308L462.27 40.5588H465.642C468.561 40.5588 470.775 40.0807 472.31 39.0741C473.82 38.0675 474.525 36.6835 474.424 34.922V34.922ZM457.916 60.967H447.775C447.07 60.9418 444.428 60.6902 444.856 57.7208L451.097 28.4798C451.449 26.7938 453.11 25.4349 454.796 25.4349H471.958C474.449 25.4349 476.613 25.5859 478.475 25.8627C480.363 26.1395 481.998 26.6428 483.382 27.3474C484.766 28.052 485.672 28.7063 486.603 30.0903C487.56 31.4995 487.786 32.5564 487.912 34.2675C488.214 38.3441 486.452 41.1121 482.829 43.4272C479.482 45.1887 474.852 45.4655 473.744 45.4907C473.744 45.4907 472.612 45.7423 473.921 46.0695C473.921 46.0695 475.531 46.4721 476.865 47.6548C479.708 49.9196 481.797 52.2598 488.239 60.9418H473.015C473.015 60.9418 470.398 55.6825 464.962 47.8568C463.754 46.1205 461.792 46.3973 461.062 46.3218L457.916 60.967ZM668.686 54.1224H680.991L680.161 58.0732C679.833 59.6837 678.147 60.9922 676.512 60.9922H657.161C656.456 60.967 653.814 60.7154 654.242 57.746L660.482 28.505C660.835 26.819 662.496 25.4602 664.182 25.4602H674.877L668.686 54.1224ZM509.326 40.0054H525.481L524.676 43.7297C524.349 45.3654 522.663 46.7745 520.977 46.7745H507.892L506.306 54.1224H522.461L521.631 58.0732C521.304 59.6837 519.618 60.9922 517.982 60.9922H494.756C494.052 60.967 491.409 60.7154 491.837 57.746L498.078 28.505C498.43 26.819 500.091 25.4602 501.777 25.4602H528.602L527.797 29.26C527.444 30.946 525.784 32.3049 524.098 32.3049H510.988L509.326 40.0054ZM608.322 25.4604L607.517 29.2602C607.039 31.0217 605.73 32.2547 603.818 32.3051H602.962C595.287 32.3303 594.809 34.4189 593.324 41.5403L591.487 49.9954C589.248 60.7654 579.534 60.9674 578.704 60.9674H559.252L560.083 57.1676C560.586 55.3055 561.97 54.2486 563.782 54.1228H568.462C576.137 54.0976 576.615 52.009 578.1 44.8876L579.937 36.4325C582.252 25.6875 593.953 25.4605 595.74 25.4605L608.322 25.4604Z" fill="white"/>
<path d="M2.19434 51V35.252H13.5811V37.1104H4.27832V41.9336H12.9902V43.7812H4.27832V49.1416H13.9463V51H2.19434ZM16.8037 51V35.252H18.9414L27.2129 47.6162V35.252H29.2109V51H27.0732L18.8018 38.625V51H16.8037ZM50.083 45.4785L52.167 46.0049C51.7301 47.7165 50.9424 49.0234 49.8037 49.9258C48.6722 50.821 47.2865 51.2686 45.6465 51.2686C43.9492 51.2686 42.5671 50.9248 41.5 50.2373C40.4401 49.5426 39.6309 48.54 39.0723 47.2295C38.5208 45.9189 38.2451 44.5117 38.2451 43.0078C38.2451 41.3678 38.5566 39.9391 39.1797 38.7217C39.8099 37.4971 40.7015 36.5697 41.8545 35.9395C43.0146 35.3021 44.2894 34.9834 45.6787 34.9834C47.2542 34.9834 48.5791 35.3844 49.6533 36.1865C50.7275 36.9886 51.4759 38.1165 51.8984 39.5703L49.8467 40.0537C49.4814 38.9079 48.9515 38.0736 48.2568 37.5508C47.5622 37.028 46.6885 36.7666 45.6357 36.7666C44.4255 36.7666 43.4121 37.0566 42.5957 37.6367C41.7865 38.2168 41.2171 38.9974 40.8877 39.9785C40.5583 40.9525 40.3936 41.9587 40.3936 42.9971C40.3936 44.3363 40.5869 45.5072 40.9736 46.5098C41.3675 47.5052 41.9762 48.25 42.7998 48.7441C43.6234 49.2383 44.515 49.4854 45.4746 49.4854C46.6419 49.4854 47.6302 49.1488 48.4395 48.4756C49.2487 47.8024 49.7965 46.8034 50.083 45.4785ZM54.1113 43.3301C54.1113 40.7161 54.8132 38.6715 56.2168 37.1963C57.6204 35.7139 59.4323 34.9727 61.6523 34.9727C63.1061 34.9727 64.4167 35.32 65.584 36.0146C66.7513 36.7093 67.6393 37.6797 68.248 38.9258C68.8639 40.1647 69.1719 41.5719 69.1719 43.1475C69.1719 44.7445 68.8496 46.1732 68.2051 47.4336C67.5605 48.694 66.6475 49.6501 65.4658 50.3018C64.2842 50.9463 63.0094 51.2686 61.6416 51.2686C60.1592 51.2686 58.8343 50.9105 57.667 50.1943C56.4997 49.4782 55.6152 48.5007 55.0137 47.2617C54.4121 46.0228 54.1113 44.7122 54.1113 43.3301ZM56.2598 43.3623C56.2598 45.2601 56.7682 46.7568 57.7852 47.8525C58.8092 48.9411 60.0911 49.4854 61.6309 49.4854C63.1992 49.4854 64.4883 48.9339 65.498 47.8311C66.515 46.7282 67.0234 45.1634 67.0234 43.1367C67.0234 41.8548 66.805 40.7376 66.3682 39.7852C65.9385 38.8255 65.3047 38.0843 64.4668 37.5615C63.6361 37.0316 62.7015 36.7666 61.6631 36.7666C60.1878 36.7666 58.9167 37.2751 57.8496 38.292C56.7897 39.3018 56.2598 40.9919 56.2598 43.3623ZM71.7822 51V35.252H73.8662V49.1416H81.6221V51H71.7822ZM82.3848 51L88.4326 35.252H90.6777L97.123 51H94.749L92.9121 46.2305H86.3271L84.5977 51H82.3848ZM86.9287 44.5332H92.2676L90.624 40.1719C90.1227 38.847 89.7503 37.7585 89.5068 36.9062C89.3063 37.916 89.0234 38.9186 88.6582 39.9141L86.9287 44.5332ZM98.7021 51V35.252H104.61C105.813 35.252 106.777 35.4131 107.5 35.7354C108.23 36.0505 108.8 36.541 109.208 37.207C109.623 37.8659 109.831 38.557 109.831 39.2803C109.831 39.9535 109.648 40.5872 109.283 41.1816C108.918 41.776 108.367 42.2559 107.629 42.6211C108.581 42.9004 109.312 43.3766 109.82 44.0498C110.336 44.723 110.594 45.5179 110.594 46.4346C110.594 47.1722 110.436 47.8597 110.121 48.4971C109.813 49.1273 109.43 49.6143 108.972 49.958C108.513 50.3018 107.937 50.5632 107.242 50.7422C106.555 50.9141 105.71 51 104.707 51H98.7021ZM100.786 41.8691H104.191C105.115 41.8691 105.778 41.8083 106.179 41.6865C106.709 41.529 107.106 41.2676 107.371 40.9023C107.643 40.5371 107.779 40.0788 107.779 39.5273C107.779 39.0046 107.654 38.5462 107.403 38.1523C107.153 37.7513 106.795 37.4792 106.329 37.3359C105.864 37.1855 105.065 37.1104 103.934 37.1104H100.786V41.8691ZM100.786 49.1416H104.707C105.38 49.1416 105.853 49.1165 106.125 49.0664C106.605 48.9805 107.006 48.8372 107.328 48.6367C107.65 48.4362 107.915 48.1462 108.123 47.7666C108.331 47.3799 108.435 46.9359 108.435 46.4346C108.435 45.8473 108.284 45.3389 107.983 44.9092C107.683 44.4723 107.264 44.168 106.727 43.9961C106.197 43.8171 105.43 43.7275 104.428 43.7275H100.786V49.1416ZM112.828 43.3301C112.828 40.7161 113.53 38.6715 114.934 37.1963C116.337 35.7139 118.149 34.9727 120.369 34.9727C121.823 34.9727 123.133 35.32 124.301 36.0146C125.468 36.7093 126.356 37.6797 126.965 38.9258C127.581 40.1647 127.889 41.5719 127.889 43.1475C127.889 44.7445 127.566 46.1732 126.922 47.4336C126.277 48.694 125.364 49.6501 124.183 50.3018C123.001 50.9463 121.726 51.2686 120.358 51.2686C118.876 51.2686 117.551 50.9105 116.384 50.1943C115.216 49.4782 114.332 48.5007 113.73 47.2617C113.129 46.0228 112.828 44.7122 112.828 43.3301ZM114.977 43.3623C114.977 45.2601 115.485 46.7568 116.502 47.8525C117.526 48.9411 118.808 49.4854 120.348 49.4854C121.916 49.4854 123.205 48.9339 124.215 47.8311C125.232 46.7282 125.74 45.1634 125.74 43.1367C125.74 41.8548 125.522 40.7376 125.085 39.7852C124.655 38.8255 124.021 38.0843 123.184 37.5615C122.353 37.0316 121.418 36.7666 120.38 36.7666C118.905 36.7666 117.633 37.2751 116.566 38.292C115.507 39.3018 114.977 40.9919 114.977 43.3623ZM130.617 51V35.252H137.6C139.003 35.252 140.07 35.3952 140.801 35.6816C141.531 35.9609 142.115 36.4587 142.552 37.1748C142.989 37.891 143.207 38.6823 143.207 39.5488C143.207 40.666 142.845 41.6077 142.122 42.374C141.399 43.1403 140.282 43.6273 138.771 43.835C139.322 44.0999 139.741 44.3613 140.027 44.6191C140.636 45.1777 141.213 45.876 141.757 46.7139L144.496 51H141.875L139.791 47.7236C139.182 46.7783 138.681 46.055 138.287 45.5537C137.893 45.0524 137.539 44.7015 137.224 44.501C136.916 44.3005 136.601 44.1608 136.278 44.082C136.042 44.0319 135.655 44.0068 135.118 44.0068H132.701V51H130.617ZM132.701 42.2021H137.181C138.133 42.2021 138.878 42.1055 139.415 41.9121C139.952 41.7116 140.36 41.3965 140.64 40.9668C140.919 40.5299 141.059 40.0573 141.059 39.5488C141.059 38.804 140.786 38.1917 140.242 37.7119C139.705 37.2321 138.853 36.9922 137.686 36.9922H132.701V42.2021ZM144.754 51L150.802 35.252H153.047L159.492 51H157.118L155.281 46.2305H148.696L146.967 51H144.754ZM149.298 44.5332H154.637L152.993 40.1719C152.492 38.847 152.119 37.7585 151.876 36.9062C151.675 37.916 151.393 38.9186 151.027 39.9141L149.298 44.5332ZM172.394 45.4785L174.478 46.0049C174.041 47.7165 173.253 49.0234 172.114 49.9258C170.983 50.821 169.597 51.2686 167.957 51.2686C166.26 51.2686 164.878 50.9248 163.811 50.2373C162.751 49.5426 161.941 48.54 161.383 47.2295C160.831 45.9189 160.556 44.5117 160.556 43.0078C160.556 41.3678 160.867 39.9391 161.49 38.7217C162.12 37.4971 163.012 36.5697 164.165 35.9395C165.325 35.3021 166.6 34.9834 167.989 34.9834C169.565 34.9834 170.89 35.3844 171.964 36.1865C173.038 36.9886 173.786 38.1165 174.209 39.5703L172.157 40.0537C171.792 38.9079 171.262 38.0736 170.567 37.5508C169.873 37.028 168.999 36.7666 167.946 36.7666C166.736 36.7666 165.723 37.0566 164.906 37.6367C164.097 38.2168 163.528 38.9974 163.198 39.9785C162.869 40.9525 162.704 41.9587 162.704 42.9971C162.704 44.3363 162.897 45.5072 163.284 46.5098C163.678 47.5052 164.287 48.25 165.11 48.7441C165.934 49.2383 166.826 49.4854 167.785 49.4854C168.952 49.4854 169.941 49.1488 170.75 48.4756C171.559 47.8024 172.107 46.8034 172.394 45.4785ZM177.41 51V35.252H179.494V51H177.41ZM182.545 43.3301C182.545 40.7161 183.247 38.6715 184.65 37.1963C186.054 35.7139 187.866 34.9727 190.086 34.9727C191.54 34.9727 192.85 35.32 194.018 36.0146C195.185 36.7093 196.073 37.6797 196.682 38.9258C197.298 40.1647 197.605 41.5719 197.605 43.1475C197.605 44.7445 197.283 46.1732 196.639 47.4336C195.994 48.694 195.081 49.6501 193.899 50.3018C192.718 50.9463 191.443 51.2686 190.075 51.2686C188.593 51.2686 187.268 50.9105 186.101 50.1943C184.933 49.4782 184.049 48.5007 183.447 47.2617C182.846 46.0228 182.545 44.7122 182.545 43.3301ZM184.693 43.3623C184.693 45.2601 185.202 46.7568 186.219 47.8525C187.243 48.9411 188.525 49.4854 190.064 49.4854C191.633 49.4854 192.922 48.9339 193.932 47.8311C194.949 46.7282 195.457 45.1634 195.457 43.1367C195.457 41.8548 195.239 40.7376 194.802 39.7852C194.372 38.8255 193.738 38.0843 192.9 37.5615C192.07 37.0316 191.135 36.7666 190.097 36.7666C188.621 36.7666 187.35 37.2751 186.283 38.292C185.223 39.3018 184.693 40.9919 184.693 43.3623ZM188.754 34.2852L190.183 31.2773H192.718L190.354 34.2852H188.754ZM200.28 51V35.252H202.418L210.689 47.6162V35.252H212.688V51H210.55L202.278 38.625V51H200.28ZM233.56 45.4785L235.644 46.0049C235.207 47.7165 234.419 49.0234 233.28 49.9258C232.149 50.821 230.763 51.2686 229.123 51.2686C227.426 51.2686 226.044 50.9248 224.977 50.2373C223.917 49.5426 223.107 48.54 222.549 47.2295C221.997 45.9189 221.722 44.5117 221.722 43.0078C221.722 41.3678 222.033 39.9391 222.656 38.7217C223.286 37.4971 224.178 36.5697 225.331 35.9395C226.491 35.3021 227.766 34.9834 229.155 34.9834C230.731 34.9834 232.056 35.3844 233.13 36.1865C234.204 36.9886 234.952 38.1165 235.375 39.5703L233.323 40.0537C232.958 38.9079 232.428 38.0736 231.733 37.5508C231.039 37.028 230.165 36.7666 229.112 36.7666C227.902 36.7666 226.889 37.0566 226.072 37.6367C225.263 38.2168 224.694 38.9974 224.364 39.9785C224.035 40.9525 223.87 41.9587 223.87 42.9971C223.87 44.3363 224.063 45.5072 224.45 46.5098C224.844 47.5052 225.453 48.25 226.276 48.7441C227.1 49.2383 227.992 49.4854 228.951 49.4854C230.118 49.4854 231.107 49.1488 231.916 48.4756C232.725 47.8024 233.273 46.8034 233.56 45.4785ZM237.588 43.3301C237.588 40.7161 238.29 38.6715 239.693 37.1963C241.097 35.7139 242.909 34.9727 245.129 34.9727C246.583 34.9727 247.893 35.32 249.061 36.0146C250.228 36.7093 251.116 37.6797 251.725 38.9258C252.34 40.1647 252.648 41.5719 252.648 43.1475C252.648 44.7445 252.326 46.1732 251.682 47.4336C251.037 48.694 250.124 49.6501 248.942 50.3018C247.761 50.9463 246.486 51.2686 245.118 51.2686C243.636 51.2686 242.311 50.9105 241.144 50.1943C239.976 49.4782 239.092 48.5007 238.49 47.2617C237.889 46.0228 237.588 44.7122 237.588 43.3301ZM239.736 43.3623C239.736 45.2601 240.245 46.7568 241.262 47.8525C242.286 48.9411 243.568 49.4854 245.107 49.4854C246.676 49.4854 247.965 48.9339 248.975 47.8311C249.992 46.7282 250.5 45.1634 250.5 43.1367C250.5 41.8548 250.282 40.7376 249.845 39.7852C249.415 38.8255 248.781 38.0843 247.943 37.5615C247.113 37.0316 246.178 36.7666 245.14 36.7666C243.664 36.7666 242.393 37.2751 241.326 38.292C240.266 39.3018 239.736 40.9919 239.736 43.3623ZM255.323 51V35.252H257.461L265.732 47.6162V35.252H267.73V51H265.593L257.321 38.625V51H255.323Z" fill="white"/>
<defs>
<linearGradient id="paint0_linear_174_26" x1="310.051" y1="41.7371" x2="310.985" y2="47.0341" gradientUnits="userSpaceOnUse">
<stop stop-color="#D85B13"/>
<stop offset="0.269" stop-color="#E57B0C"/>
<stop offset="0.5447" stop-color="#EF9407"/>
<stop offset="0.7964" stop-color="#F5A304"/>
<stop offset="1" stop-color="#F7A803"/>
</linearGradient>
<linearGradient id="paint1_linear_174_26" x1="325.099" y1="5.34268" x2="379.667" y2="59.908" gradientUnits="userSpaceOnUse">
<stop stop-color="#FDCC54"/>
<stop offset="0.0154" stop-color="#FCC94D"/>
<stop offset="0.1364" stop-color="#F7B01C"/>
<stop offset="0.1963" stop-color="#F5A709"/>
<stop offset="0.4906" stop-color="#F5A509"/>
<stop offset="0.6479" stop-color="#F39D09"/>
<stop offset="0.7728" stop-color="#F28F0A"/>
<stop offset="0.8806" stop-color="#EF7C0A"/>
<stop offset="0.9766" stop-color="#EB630B"/>
<stop offset="1" stop-color="#EA5C0B"/>
</linearGradient>
<linearGradient id="paint2_linear_174_26" x1="322.145" y1="33.2141" x2="412.35" y2="66.0455" gradientUnits="userSpaceOnUse">
<stop stop-color="#A7A5A4"/>
<stop offset="0.0516" stop-color="#C5C4C3"/>
<stop offset="0.1074" stop-color="#DFDEDD"/>
<stop offset="0.1648" stop-color="#F1F0F0"/>
<stop offset="0.2241" stop-color="#FBFBFB"/>
<stop offset="0.2883" stop-color="white"/>
<stop offset="0.5148" stop-color="#FDFDFC"/>
<stop offset="0.6495" stop-color="#F5F4F4"/>
<stop offset="0.7602" stop-color="#E7E6E6"/>
<stop offset="0.8578" stop-color="#D3D2D2"/>
<stop offset="0.9461" stop-color="#BAB9B8"/>
<stop offset="1" stop-color="#A7A5A4"/>
</linearGradient>
<linearGradient id="paint3_linear_174_26" x1="334.105" y1="5.15647" x2="396.711" y2="27.9422" gradientUnits="userSpaceOnUse">
<stop offset="0.0859" stop-color="#FDCC54"/>
<stop offset="1" stop-color="#F1950A" stop-opacity="0.05"/>
</linearGradient>
<linearGradient id="paint4_linear_174_26" x1="356.534" y1="81.4333" x2="356.534" y2="57.1576" gradientUnits="userSpaceOnUse">
<stop stop-color="#88181E" stop-opacity="0.3"/>
<stop offset="0.4969" stop-color="#B21829" stop-opacity="0"/>
<stop offset="0.6534" stop-color="#AA1827" stop-opacity="0.3111"/>
<stop offset="0.8996" stop-color="#931821" stop-opacity="0.8004"/>
<stop offset="1" stop-color="#88181E"/>
</linearGradient>
<linearGradient id="paint5_linear_174_26" x1="342.342" y1="83.839" x2="373.547" y2="42.4266" gradientUnits="userSpaceOnUse">
<stop offset="0.0123" stop-color="#E20334" stop-opacity="0"/>
<stop offset="0.0489" stop-color="#DA0531" stop-opacity="0.041"/>
<stop offset="0.2059" stop-color="#BB0E28" stop-opacity="0.2166"/>
<stop offset="0.3591" stop-color="#A51421" stop-opacity="0.388"/>
<stop offset="0.5056" stop-color="#98181D" stop-opacity="0.5519"/>
<stop offset="0.638" stop-color="#93191C" stop-opacity="0.7"/>
<stop offset="1" stop-color="#95191D"/>
</linearGradient>
<linearGradient id="paint6_linear_174_26" x1="402.572" y1="61.355" x2="402.572" y2="57.2633" gradientUnits="userSpaceOnUse">
<stop offset="0.006135" stop-color="#D7D8D8"/>
<stop offset="0.1914" stop-color="#D0D1D1"/>
<stop offset="0.4642" stop-color="#BCBDBD"/>
<stop offset="0.7894" stop-color="#9C9D9D"/>
<stop offset="1" stop-color="#838484"/>
</linearGradient>
</defs>
</svg>
