<svg width="167" height="64" viewBox="0 0 167 64" fill="none" xmlns="http://www.w3.org/2000/svg">
<g clip-path="url(#clip0_403_2593)">
<path d="M1.57716 0.437866H0V64H1.57716V0.437866Z" fill="url(#paint0_linear_403_2593)"/>
<path d="M28.8 30.884C28.2992 32.664 27.1182 34.1999 25.3467 34.9822C23.8518 35.6425 22.312 35.7 20.7274 35.7H14.0674V21.597H21.4075C21.8411 21.597 22.2821 21.597 22.7156 21.64C24.1732 21.7405 25.4215 22.1424 26.5875 23.0611C28.957 24.9416 29.0841 27.8125 29.0841 28.6953C29.0841 29.0326 29.0617 29.937 28.7926 30.8916L28.8 30.884ZM24.0984 23.154C23.1417 22.8167 22.4166 22.7521 21.415 22.7521H15.525V34.5161H20.2041C22.1774 34.5161 24.4049 34.473 25.9447 33.0806C26.737 32.3629 27.6116 31.0854 27.6116 28.7671C27.6116 26.4488 26.5726 24.0297 24.0984 23.154Z" fill="white"/>
<path d="M103.64 22.7521V35.6931H102.25V22.7521H95.6572V21.5966H109.949V22.7521H103.64Z" fill="white"/>
<path d="M143.26 34.458C142.325 35.1183 140.681 36.0585 137.893 36.0585C135.105 36.0585 133.669 35.2619 132.758 34.6231C130.762 33.202 129.641 31.0058 129.641 28.5942C129.641 27.7186 129.768 25.795 131.345 23.9791C133.595 21.3809 136.757 21.1656 137.915 21.1656C138.827 21.1656 141.533 21.3235 143.656 23.1824C144.321 23.7638 144.717 24.3236 145.195 25.0413L143.947 25.7016C143.82 25.5007 143.409 24.783 142.804 24.2016C141.099 22.5221 138.685 22.4216 137.96 22.4216C137.145 22.4216 134.753 22.5581 132.967 24.3165C131.345 25.9171 131.195 27.9482 131.195 28.6875C131.195 29.4627 131.337 31.4004 133.027 33.001C134.813 34.7163 137.168 34.8168 137.975 34.8168C138.977 34.8168 141.428 34.6805 143.342 32.599C143.656 32.2617 143.843 32.0393 144.299 31.3216L145.569 31.9028C145.218 32.4842 144.635 33.4818 143.26 34.458Z" fill="white"/>
<path d="M162.73 35.693V28.8027H150.397V35.693H148.961V21.59H150.397V27.6189H162.73V21.59H164.128V35.693H162.73Z" fill="white"/>
<path d="M84.2699 23.111C84.1877 22.989 83.9186 22.6948 83.5823 22.4292C82.4984 21.6469 81.2726 21.5895 79.9869 21.5895H70.2324V22.745H80.1364C80.9512 22.745 81.7809 22.8024 82.4685 23.2618C83.4477 23.9221 83.5299 25.1422 83.5299 25.4365C83.5299 26.4557 83.074 27.037 82.7376 27.3313C81.7809 28.2069 80.3681 28.2069 79.1572 28.2069H70.2324V35.6785H71.69V29.3696H79.658C80.9885 29.3696 82.4237 29.2907 83.5449 28.451C84.9352 27.4318 85.0398 25.9963 85.0398 25.4365C85.0398 24.2379 84.539 23.4412 84.2699 23.0967V23.111Z" fill="white"/>
<path d="M127.03 22.7521V21.5894H112.962V22.788L127.03 22.7521Z" fill="white"/>
<path d="M127.03 22.7521V21.5894H112.962V22.7305L127.03 22.7521Z" fill="white"/>
<path d="M114.4 34.516V28.9034H126.076V27.7048H112.965V35.6931H127.631V34.516H114.4Z" fill="white"/>
<path d="M47.1498 22.7521V21.5894H33.0898V22.7305L47.1498 22.7521Z" fill="white"/>
<path d="M34.5258 34.516V28.9034H46.2018V27.7048H33.0908V35.6931H47.7558V34.516H34.5258Z" fill="white"/>
<path d="M65.7402 22.7521V21.5894H51.6802V22.7305L65.7402 22.7521Z" fill="white"/>
<path d="M53.1152 34.516V28.9034H64.7832V27.7048H51.6802V35.6931H66.3452V34.516H53.1152Z" fill="white"/>
<path d="M45.11 14.541L43.2189 10.8877H33.7559L31.8872 14.541H30.4072L37.6427 0.437988H39.2199L46.6274 14.541H45.11ZM38.4351 1.70099L34.3165 9.76829H42.6359L38.4351 1.70099Z" fill="white"/>
<path d="M79.6428 13.3C78.7085 13.9604 77.0641 14.9006 74.276 14.9006C71.4879 14.9006 70.0528 14.1039 69.1409 13.4651C67.1451 12.044 66.0239 9.84779 66.0239 7.43619C66.0239 6.56056 66.151 4.63709 67.7281 2.82119C69.9706 0.222988 73.1324 0.000488281 74.2984 0.000488281C75.2103 0.000488281 77.9162 0.158388 80.039 2.01729C80.7043 2.59865 81.1004 3.15849 81.5788 3.87619L80.3305 4.5365C80.2034 4.33554 79.7923 3.61781 79.1869 3.0365C77.4827 1.357 75.0683 1.2565 74.3433 1.2565C73.5285 1.2565 71.1366 1.39287 69.3502 3.1513C67.7281 4.7518 67.5787 6.783 67.5787 7.5223C67.5787 8.29745 67.7207 10.2353 69.41 11.8359C71.1964 13.5512 73.551 13.6517 74.3582 13.6517C75.3598 13.6517 77.8115 13.5154 79.7251 11.4339C80.039 11.0966 80.2259 10.8741 80.6818 10.1564L81.9525 10.7377C81.6012 11.3191 81.0182 12.3167 79.6428 13.2929V13.3Z" fill="white"/>
<path d="M101.62 14.541V0.437988H103.078V13.364H113.49V14.5411L101.62 14.541Z" fill="white"/>
<path d="M129.15 12.022C126.781 14.7565 123.245 14.9216 122.102 14.9216C120.958 14.9216 116.548 14.7206 114.448 11.1033C113.551 9.56732 113.491 8.12472 113.491 7.47162C113.491 6.95486 113.536 5.83522 114.096 4.57202C115.464 1.42122 118.813 -0.0214832 122.199 0.000116799C123.402 0.000116799 127.439 0.179547 129.644 3.53852C130.705 5.15342 130.832 6.75392 130.832 7.45012C130.832 8.2468 130.668 10.2635 129.15 12.022ZM129.068 5.84952C128.881 5.07438 128.261 3.21542 126.175 2.13172C125.465 1.77286 123.888 1.13408 121.743 1.21303C121.137 1.23456 119.164 1.37093 117.564 2.51213C116.712 3.11502 115.023 4.70833 115.023 7.52903C115.023 7.90943 115.068 8.90703 115.501 9.94783C116.981 13.5221 121.137 13.7231 122.176 13.7231C122.901 13.7231 125.002 13.6657 126.818 12.3666C129.105 10.7086 129.233 8.25403 129.233 7.37123C129.233 7.04825 129.255 6.57444 129.068 5.84952Z" fill="white"/>
<path d="M147.63 14.541L135.043 2.23899V14.541H133.734V0.437988H135.043L147.63 12.805V0.437988H148.938V14.541H147.63Z" fill="white"/>
<path d="M165.48 14.541L163.589 10.8877H154.126L152.257 14.541H150.777L158.013 0.437988H159.59L166.997 14.541H165.48ZM158.805 1.70099L154.687 9.76829H163.006L158.805 1.70099Z" fill="white"/>
<path d="M58.7738 8.24676C60.0669 8.18934 61.3974 8.12475 62.4962 7.3496C63.8865 6.35195 63.9912 4.8734 63.9912 4.3136C63.9912 3.9332 63.9463 2.9571 63.3483 2.0743C62.3094 0.552698 60.5827 0.473798 59.9772 0.459398C59.6259 0.437866 59.2672 0.437866 58.9158 0.437866H48.7648V1.57907L58.9608 1.6006C59.7905 1.6006 60.6052 1.6006 61.3303 2.05995C62.3468 2.72026 62.4515 3.89735 62.4515 4.23465C62.4515 4.87343 62.2198 5.39015 62.1151 5.59115C61.4872 6.76825 60.2614 6.96915 59.0355 7.02665C58.6992 7.04818 58.3927 7.04818 58.0563 7.04818H48.7578V14.5413H50.1705V8.24678H56.8903L62.6907 14.5413H64.664L58.759 8.24678L58.7738 8.24676Z" fill="white"/>
<path d="M98.3598 1.6006V0.437866H84.2998V1.5791L98.3598 1.6006Z" fill="white"/>
<path d="M85.7348 13.3641V7.75146H97.4028V6.55286H84.2998V14.5412H98.9648V13.3641H85.7348Z" fill="white"/>
<path d="M27.3201 7.29225C26.9688 7.17024 26.61 7.11282 26.2587 7.06975C26.4905 7.01234 26.9464 6.93338 27.4472 6.61041C27.7836 6.38791 28.404 5.91421 28.6731 4.97401C28.8151 4.51466 28.8151 4.17733 28.8151 3.97637C28.8151 2.95717 28.3591 2.26097 28.1274 1.93797C27.3351 0.897266 26.2363 0.437866 24.9208 0.437866H14.0528V1.57907H24.0316C25.1528 1.57907 26.2366 1.65802 26.9019 2.65567C27.2756 3.23703 27.298 3.81127 27.298 4.05527C27.298 4.87348 26.9617 5.37587 26.7374 5.61277C25.9675 6.4884 24.9061 6.57453 23.8223 6.57453H14.0528V7.78753L23.6952 7.77318C24.9883 7.77318 26.6701 7.81624 27.5447 8.97178C28.0679 9.63209 28.1053 10.4718 28.1053 10.7087C28.1053 10.9455 28.0604 11.5054 27.7316 12.0867C27.1261 13.1418 26.0049 13.3643 24.8837 13.3643H14.0527V14.5414H24.8607C26.0043 14.5414 27.1106 14.4409 28.0823 13.7662C29.4726 12.8045 29.5623 11.1896 29.5623 10.7087C29.5623 9.23018 28.7924 7.83058 27.3124 7.29228L27.3201 7.29225Z" fill="white"/>
<path d="M28.314 54.842C27.3946 56.1267 25.4063 57.311 21.7886 57.311C21.37 57.311 20.9514 57.2894 20.5104 57.2679C19.8825 57.2248 16.788 57.0885 14.9492 55.2008C14.3811 54.641 14.0747 54.0525 13.6934 53.3922L15.2407 52.8323C15.4276 53.2917 15.8462 54.275 16.9973 55.0214C17.8569 55.5597 19.3369 56.0621 21.6839 56.0621C22.252 56.0621 24.2776 56.0621 25.9071 55.1362C26.8041 54.6123 27.4768 53.8515 27.4768 52.8108C27.4768 51.9854 27.0358 51.5261 26.7891 51.3251C25.8473 50.5787 23.3358 50.3203 22.252 50.1767C21.355 50.0547 20.4506 49.9542 19.576 49.8322C18.6342 49.6887 17.4607 49.5523 16.6086 49.1288C16.1078 48.8848 14.852 48.1456 14.852 46.502C14.852 45.1383 15.7714 43.9899 16.9674 43.3511C18.2829 42.6477 20.1665 42.3894 21.654 42.3894C22.551 42.3894 25.354 42.4468 27.574 44.198C28.0972 44.6215 28.4112 44.9804 28.5756 45.1813L27.2376 45.8632C27.1106 45.7053 26.9461 45.5043 26.7966 45.3392C25.4362 44.0114 23.4106 43.6095 21.5494 43.6095C21.1308 43.6095 19.1874 43.6095 17.7223 44.4349C17.3037 44.6789 16.8851 45.0163 16.6385 45.4397C16.5563 45.5833 16.3694 45.9637 16.3694 46.4445C16.3694 47.4494 17.229 47.8298 17.5205 47.9733C18.1484 48.2532 18.8585 48.3537 20.2562 48.5331C23.4778 48.9781 25.5259 49.1791 26.819 49.7174C28.1346 50.2629 29.0166 51.3251 29.0166 52.7319C29.0166 53.1338 28.9344 53.9735 28.3289 54.842H28.314Z" fill="white"/>
<path d="M47.4048 54.756C46.5452 56.0982 45.2521 56.7011 43.7048 57.0456C42.4491 57.3039 41.4699 57.3039 40.9691 57.3039C40.5057 57.3039 38.8537 57.3039 37.3289 56.8805C36.5142 56.658 34.5483 56.0336 33.7111 53.8301C33.3524 52.9043 33.3374 51.9425 33.3374 50.9592V42.7699H34.6978V50.3994C34.6978 51.7272 34.638 53.0909 35.4901 54.2321C36.2451 55.2369 37.7699 56.0192 40.4907 56.0192C43.8169 56.0192 45.4464 55.3948 46.3285 53.9306C46.8293 53.0909 46.9563 52.165 46.9563 50.2558V42.7627H48.2943V51.2535C48.2943 51.7774 48.3392 53.3421 47.4198 54.7488L47.4048 54.756Z" fill="white"/>
<path d="M68.2441 56.945V44.313C68.0797 44.6718 67.975 44.9374 67.8031 45.2747L62.2195 56.9377H60.7545L55.1111 45.3747C54.984 45.1307 54.8569 44.8292 54.6925 44.3125V56.9445H53.3545V42.7695H55.2381L60.8442 54.2535C61.1132 54.799 61.3076 55.1794 61.5169 55.7608L67.7284 42.7698H69.5671V56.9448L68.2441 56.945Z" fill="white"/>
<path d="M89.5322 56.945V44.313C89.3678 44.6718 89.2631 44.9374 89.0912 45.2747L83.5076 56.9377H82.0425L76.3991 45.3747C76.2721 45.1307 76.145 44.8292 75.9806 44.3125V56.9445H74.6426V42.7695H76.5262L82.1322 54.2535C82.4013 54.799 82.5957 55.1794 82.805 55.7608L89.0164 42.7698H90.8552V56.9448L89.5322 56.945Z" fill="white"/>
<path d="M95.9229 56.945V42.77H97.3207V56.945H95.9229Z" fill="white"/>
<path d="M108.68 43.94V56.952H107.282V43.94H100.652V42.7772H115.018V43.94H108.68Z" fill="white"/>
</g>
<defs>
<linearGradient id="paint0_linear_403_2593" x1="0.792321" y1="64" x2="0.792321" y2="0.437874" gradientUnits="userSpaceOnUse">
<stop stop-color="#E588B7" stop-opacity="0"/>
<stop offset="0.08" stop-color="#E588B7" stop-opacity="0.13"/>
<stop offset="0.27" stop-color="#E588B7" stop-opacity="0.39"/>
<stop offset="0.45" stop-color="#E588B7" stop-opacity="0.61"/>
<stop offset="0.61" stop-color="#E588B7" stop-opacity="0.78"/>
<stop offset="0.77" stop-color="#E588B7" stop-opacity="0.9"/>
<stop offset="0.9" stop-color="#E588B7" stop-opacity="0.97"/>
<stop offset="1" stop-color="#E588B7"/>
</linearGradient>
<clipPath id="clip0_403_2593">
<rect width="167" height="64" fill="white"/>
</clipPath>
</defs>
</svg>
